<?xml version="1.0" encoding="UTF-8"?>
<svg xmlns="http://www.w3.org/2000/svg" xmlns:xlink="http://www.w3.org/1999/xlink" width="60pt" height="36pt" viewBox="0 0 60 36" version="1.1">
<g id="surface1">
<path style=" stroke:none;fill-rule:nonzero;fill:rgb(0%,0%,0%);fill-opacity:1;" d="M 25.96875 8.867188 C 25.675781 8.917969 25.445312 9.117188 25.363281 9.382812 C 25.238281 9.792969 25.242188 9.460938 25.25 15.105469 L 25.257812 20.3125 L 25.316406 20.46875 C 25.476562 20.878906 25.691406 21.058594 26.089844 21.113281 C 26.441406 21.160156 26.730469 21.074219 26.9375 20.859375 C 27.082031 20.707031 27.160156 20.5625 27.234375 20.320312 C 27.28125 20.15625 27.285156 20.09375 27.300781 18.738281 C 27.316406 17.316406 27.335938 16.957031 27.425781 16.453125 C 27.503906 16.023438 27.714844 15.78125 28.121094 15.65625 C 28.230469 15.621094 28.332031 15.613281 28.648438 15.617188 C 29 15.617188 29.054688 15.621094 29.175781 15.667969 C 29.367188 15.746094 29.507812 15.882812 29.636719 16.125 C 29.894531 16.621094 29.945312 17.023438 29.964844 18.691406 C 29.980469 19.738281 29.996094 19.972656 30.070312 20.265625 C 30.183594 20.707031 30.351562 20.957031 30.613281 21.058594 C 30.796875 21.132812 31.160156 21.132812 31.34375 21.058594 C 31.542969 20.972656 31.710938 20.714844 31.785156 20.382812 C 31.914062 19.804688 31.941406 18.558594 31.871094 16.875 C 31.820312 15.785156 31.671875 15.25 31.25 14.683594 C 30.859375 14.15625 30.140625 13.734375 29.398438 13.59375 C 29.097656 13.539062 28.425781 13.542969 28.074219 13.597656 C 27.84375 13.632812 27.46875 13.722656 27.363281 13.761719 C 27.324219 13.777344 27.324219 13.722656 27.324219 12.796875 C 27.324219 11.683594 27.289062 10.261719 27.25 9.921875 C 27.222656 9.667969 27.164062 9.441406 27.074219 9.277344 C 27.003906 9.140625 26.804688 8.984375 26.613281 8.910156 C 26.460938 8.851562 26.164062 8.832031 25.96875 8.867188 Z M 25.96875 8.867188 "/>
<path style=" stroke:none;fill-rule:nonzero;fill:rgb(0%,0%,0%);fill-opacity:1;" d="M 14.261719 8.960938 C 12.882812 8.972656 12.726562 8.984375 12.429688 9.054688 C 12.15625 9.117188 11.925781 9.285156 11.832031 9.484375 C 11.757812 9.644531 11.761719 10.082031 11.832031 10.3125 C 11.917969 10.589844 12.128906 10.765625 12.503906 10.878906 C 12.875 10.988281 12.96875 10.996094 14.238281 11.019531 C 14.90625 11.03125 15.472656 11.046875 15.496094 11.054688 C 15.542969 11.066406 15.542969 11.089844 15.542969 13.953125 C 15.542969 16.566406 15.539062 16.867188 15.5 17.117188 C 15.449219 17.472656 15.378906 17.820312 15.320312 17.996094 C 15.25 18.195312 15.085938 18.511719 14.984375 18.632812 C 14.789062 18.871094 14.5 19.054688 14.203125 19.132812 C 13.945312 19.195312 13.460938 19.167969 13.101562 19.0625 C 12.894531 19 12.726562 18.886719 12.339844 18.542969 C 11.796875 18.058594 11.597656 17.945312 11.320312 17.96875 C 11.050781 17.992188 10.691406 18.230469 10.570312 18.472656 C 10.40625 18.792969 10.417969 19.222656 10.601562 19.640625 C 10.753906 19.984375 11.09375 20.390625 11.425781 20.625 C 11.84375 20.917969 12.488281 21.160156 13.140625 21.265625 C 13.503906 21.320312 14.253906 21.332031 14.628906 21.285156 C 15.1875 21.21875 15.816406 21.050781 16.15625 20.878906 C 16.992188 20.457031 17.585938 19.59375 17.800781 18.476562 C 17.886719 18.046875 17.949219 17.527344 17.980469 17.027344 C 18.011719 16.46875 18.011719 14.957031 17.980469 14.292969 C 17.941406 13.503906 17.90625 11.789062 17.925781 11.375 L 17.9375 11.003906 L 18.574219 10.988281 C 19.226562 10.972656 19.589844 10.9375 19.800781 10.867188 C 19.949219 10.816406 20.175781 10.613281 20.253906 10.453125 C 20.308594 10.347656 20.316406 10.308594 20.316406 10.058594 C 20.316406 9.714844 20.269531 9.578125 20.09375 9.386719 C 19.960938 9.238281 19.910156 9.207031 19.636719 9.117188 C 19.269531 8.992188 19.160156 8.980469 17.675781 8.957031 C 16.921875 8.945312 16.171875 8.9375 16.003906 8.941406 C 15.839844 8.941406 15.054688 8.953125 14.261719 8.960938 Z M 14.261719 8.960938 "/>
<path style=" stroke:none;fill-rule:nonzero;fill:rgb(0%,0%,0%);fill-opacity:1;" d="M 22.382812 9.179688 C 22.042969 9.304688 21.820312 9.570312 21.761719 9.921875 C 21.734375 10.089844 21.765625 10.367188 21.835938 10.554688 C 22.019531 11.054688 22.46875 11.304688 22.984375 11.195312 C 23.445312 11.097656 23.761719 10.804688 23.839844 10.398438 C 23.914062 10.027344 23.695312 9.617188 23.289062 9.34375 C 23.074219 9.199219 22.890625 9.144531 22.65625 9.144531 C 22.550781 9.144531 22.429688 9.160156 22.382812 9.179688 Z M 22.382812 9.179688 "/>
<path style=" stroke:none;fill-rule:nonzero;fill:rgb(0%,0%,0%);fill-opacity:1;" d="M 22.460938 12.6875 C 21.921875 12.777344 21.71875 13.085938 21.625 13.941406 C 21.59375 14.222656 21.59375 16.566406 21.625 18.308594 C 21.648438 19.734375 21.667969 19.945312 21.785156 20.308594 C 21.933594 20.75 22.136719 20.957031 22.503906 21.03125 C 22.964844 21.128906 23.320312 20.960938 23.511719 20.546875 C 23.613281 20.332031 23.640625 20.230469 23.695312 19.871094 C 23.726562 19.65625 23.730469 19.253906 23.738281 17.164062 C 23.753906 13.277344 23.722656 12.992188 23.269531 12.785156 C 23.035156 12.675781 22.738281 12.640625 22.460938 12.6875 Z M 22.460938 12.6875 "/>
<path style=" stroke:none;fill-rule:nonzero;fill:rgb(0%,0%,0%);fill-opacity:1;" d="M 42.828125 12.832031 C 42.542969 12.914062 42.304688 13.125 42.195312 13.394531 C 42.070312 13.71875 42.070312 13.695312 42.070312 16.199219 C 42.070312 18.488281 42.082031 18.953125 42.152344 19.757812 C 42.195312 20.222656 42.238281 20.429688 42.351562 20.660156 C 42.484375 20.941406 42.734375 21.132812 43.058594 21.203125 C 43.453125 21.285156 43.789062 21.046875 43.953125 20.578125 C 44.078125 20.210938 44.078125 20.21875 44.101562 18.269531 C 44.125 16.34375 44.125 16.3125 44.238281 16.089844 C 44.40625 15.761719 44.824219 15.457031 45.25 15.34375 C 45.449219 15.292969 45.804688 15.285156 45.996094 15.328125 C 46.167969 15.363281 46.378906 15.464844 46.503906 15.570312 C 46.847656 15.855469 47.011719 16.269531 47.011719 16.847656 C 47.011719 17.386719 47.054688 19.164062 47.078125 19.515625 C 47.128906 20.296875 47.261719 20.78125 47.476562 20.964844 C 47.699219 21.152344 48.085938 21.195312 48.480469 21.078125 C 48.824219 20.972656 48.957031 20.65625 48.992188 19.828125 C 49.003906 19.558594 49.027344 19.128906 49.039062 18.871094 C 49.070312 18.351562 49.0625 17.757812 49.007812 16.722656 C 48.953125 15.738281 48.886719 15.332031 48.714844 14.894531 C 48.335938 13.933594 47.382812 13.292969 46.175781 13.183594 C 45.53125 13.121094 44.5625 13.554688 44.238281 14.046875 C 44.199219 14.105469 44.160156 14.152344 44.152344 14.152344 C 44.140625 14.144531 44.125 14.015625 44.109375 13.859375 C 44.074219 13.476562 44.015625 13.300781 43.863281 13.132812 C 43.722656 12.980469 43.589844 12.910156 43.332031 12.847656 C 43.117188 12.796875 42.984375 12.792969 42.828125 12.832031 Z M 42.828125 12.832031 "/>
<path style=" stroke:none;fill-rule:nonzero;fill:rgb(0%,0%,0%);fill-opacity:1;" d="M 34.1875 12.90625 C 34.019531 12.941406 33.796875 13.050781 33.683594 13.152344 C 33.515625 13.296875 33.390625 13.652344 33.347656 14.128906 C 33.308594 14.527344 33.304688 16.984375 33.339844 17.535156 C 33.414062 18.578125 33.515625 19.097656 33.753906 19.640625 C 34.015625 20.242188 34.339844 20.613281 34.847656 20.886719 C 35.238281 21.097656 35.683594 21.234375 36.199219 21.308594 C 36.574219 21.359375 37.328125 21.34375 37.707031 21.277344 C 38.597656 21.109375 39.292969 20.722656 39.632812 20.207031 C 40.140625 19.433594 40.28125 18.597656 40.308594 16.164062 C 40.332031 14.144531 40.222656 13.410156 39.847656 13.132812 C 39.679688 13.007812 39.453125 12.941406 39.183594 12.941406 C 38.761719 12.941406 38.390625 13.136719 38.257812 13.4375 C 38.121094 13.75 38.097656 14.183594 38.105469 16.179688 C 38.113281 17.871094 38.105469 17.96875 38.015625 18.355469 C 37.941406 18.65625 37.800781 18.863281 37.589844 18.96875 C 37.410156 19.0625 37.046875 19.125 36.734375 19.117188 C 36.480469 19.109375 36.460938 19.105469 36.296875 19.019531 C 35.957031 18.855469 35.710938 18.503906 35.574219 18.007812 C 35.449219 17.542969 35.433594 17.257812 35.375 15.058594 C 35.367188 14.574219 35.34375 14.09375 35.332031 13.992188 C 35.246094 13.355469 35.011719 13.019531 34.582031 12.90625 C 34.417969 12.863281 34.375 12.863281 34.1875 12.90625 Z M 34.1875 12.90625 "/>
</g>
</svg>
