<?xml version="1.0" encoding="UTF-8"?>
<svg xmlns="http://www.w3.org/2000/svg" xmlns:xlink="http://www.w3.org/1999/xlink" width="50pt" height="30pt" viewBox="0 0 50 30" version="1.1">
<g id="surface1">
<path style=" stroke:none;fill-rule:nonzero;fill:rgb(0%,0%,0%);fill-opacity:1;" d="M 21.640625 7.390625 C 21.398438 7.433594 21.207031 7.597656 21.136719 7.820312 C 21.03125 8.160156 21.035156 7.882812 21.042969 12.585938 L 21.046875 16.925781 L 21.097656 17.054688 C 21.230469 17.398438 21.410156 17.546875 21.742188 17.59375 C 22.035156 17.636719 22.277344 17.5625 22.449219 17.382812 C 22.570312 17.253906 22.632812 17.136719 22.695312 16.933594 C 22.734375 16.796875 22.738281 16.746094 22.75 15.617188 C 22.761719 14.429688 22.78125 14.128906 22.855469 13.710938 C 22.917969 13.351562 23.09375 13.148438 23.433594 13.046875 C 23.527344 13.015625 23.609375 13.011719 23.875 13.011719 C 24.164062 13.011719 24.214844 13.019531 24.3125 13.058594 C 24.472656 13.121094 24.589844 13.238281 24.695312 13.4375 C 24.910156 13.851562 24.953125 14.1875 24.972656 15.578125 C 24.984375 16.449219 24.996094 16.644531 25.058594 16.886719 C 25.152344 17.257812 25.292969 17.464844 25.507812 17.550781 C 25.664062 17.613281 25.96875 17.613281 26.121094 17.546875 C 26.285156 17.480469 26.425781 17.261719 26.488281 16.984375 C 26.59375 16.503906 26.617188 15.464844 26.558594 14.0625 C 26.515625 13.152344 26.390625 12.707031 26.042969 12.234375 C 25.714844 11.796875 25.117188 11.445312 24.5 11.328125 C 24.25 11.28125 23.6875 11.285156 23.394531 11.332031 C 23.203125 11.363281 22.890625 11.433594 22.804688 11.46875 C 22.769531 11.480469 22.769531 11.433594 22.769531 10.664062 C 22.769531 9.738281 22.742188 8.550781 22.710938 8.269531 C 22.6875 8.054688 22.636719 7.867188 22.5625 7.730469 C 22.5 7.617188 22.335938 7.488281 22.175781 7.425781 C 22.050781 7.375 21.804688 7.359375 21.640625 7.390625 Z M 21.640625 7.390625 "/>
<path style=" stroke:none;fill-rule:nonzero;fill:rgb(0%,0%,0%);fill-opacity:1;" d="M 11.882812 7.46875 C 10.738281 7.480469 10.605469 7.488281 10.359375 7.542969 C 10.128906 7.597656 9.9375 7.738281 9.859375 7.90625 C 9.796875 8.035156 9.800781 8.402344 9.859375 8.59375 C 9.933594 8.824219 10.109375 8.972656 10.417969 9.0625 C 10.730469 9.15625 10.808594 9.164062 11.867188 9.183594 C 12.421875 9.191406 12.890625 9.207031 12.914062 9.210938 C 12.953125 9.222656 12.953125 9.238281 12.953125 11.628906 C 12.953125 13.804688 12.949219 14.054688 12.917969 14.265625 C 12.875 14.558594 12.816406 14.847656 12.765625 15 C 12.710938 15.160156 12.570312 15.425781 12.488281 15.527344 C 12.324219 15.726562 12.082031 15.878906 11.835938 15.941406 C 11.621094 15.996094 11.21875 15.972656 10.917969 15.886719 C 10.746094 15.832031 10.605469 15.738281 10.28125 15.453125 C 9.832031 15.046875 9.664062 14.957031 9.433594 14.972656 C 9.210938 14.992188 8.910156 15.191406 8.808594 15.394531 C 8.671875 15.660156 8.683594 16.019531 8.835938 16.367188 C 8.960938 16.652344 9.246094 16.992188 9.523438 17.1875 C 9.871094 17.433594 10.40625 17.632812 10.953125 17.71875 C 11.253906 17.769531 11.878906 17.777344 12.191406 17.738281 C 12.65625 17.679688 13.179688 17.542969 13.464844 17.398438 C 14.160156 17.046875 14.652344 16.328125 14.835938 15.398438 C 14.90625 15.039062 14.957031 14.605469 14.984375 14.1875 C 15.007812 13.722656 15.007812 12.464844 14.984375 11.910156 C 14.949219 11.253906 14.921875 9.824219 14.9375 9.480469 L 14.949219 9.167969 L 15.480469 9.15625 C 16.023438 9.144531 16.324219 9.113281 16.5 9.058594 C 16.625 9.015625 16.8125 8.84375 16.878906 8.710938 C 16.925781 8.621094 16.929688 8.59375 16.929688 8.382812 C 16.929688 8.09375 16.890625 7.980469 16.746094 7.820312 C 16.632812 7.699219 16.59375 7.671875 16.367188 7.597656 C 16.058594 7.492188 15.96875 7.484375 14.730469 7.464844 C 14.101562 7.457031 13.476562 7.449219 13.335938 7.449219 C 13.199219 7.453125 12.546875 7.460938 11.882812 7.46875 Z M 11.882812 7.46875 "/>
<path style=" stroke:none;fill-rule:nonzero;fill:rgb(0%,0%,0%);fill-opacity:1;" d="M 18.652344 7.648438 C 18.371094 7.753906 18.183594 7.976562 18.132812 8.269531 C 18.113281 8.40625 18.136719 8.636719 18.195312 8.792969 C 18.351562 9.214844 18.722656 9.417969 19.152344 9.328125 C 19.535156 9.246094 19.800781 9.003906 19.867188 8.664062 C 19.925781 8.355469 19.746094 8.011719 19.40625 7.785156 C 19.226562 7.664062 19.078125 7.621094 18.878906 7.621094 C 18.792969 7.621094 18.691406 7.632812 18.652344 7.648438 Z M 18.652344 7.648438 "/>
<path style=" stroke:none;fill-rule:nonzero;fill:rgb(0%,0%,0%);fill-opacity:1;" d="M 18.71875 10.574219 C 18.269531 10.648438 18.097656 10.90625 18.019531 11.617188 C 17.996094 11.855469 17.996094 13.804688 18.019531 15.257812 C 18.039062 16.445312 18.054688 16.621094 18.15625 16.921875 C 18.277344 17.292969 18.445312 17.464844 18.75 17.527344 C 19.136719 17.609375 19.433594 17.46875 19.59375 17.121094 C 19.679688 16.941406 19.703125 16.859375 19.746094 16.5625 C 19.769531 16.378906 19.777344 16.046875 19.78125 14.304688 C 19.792969 11.0625 19.769531 10.828125 19.390625 10.652344 C 19.195312 10.5625 18.949219 10.535156 18.71875 10.574219 Z M 18.71875 10.574219 "/>
<path style=" stroke:none;fill-rule:nonzero;fill:rgb(0%,0%,0%);fill-opacity:1;" d="M 35.691406 10.695312 C 35.453125 10.761719 35.253906 10.9375 35.164062 11.164062 C 35.058594 11.429688 35.058594 11.414062 35.058594 13.5 C 35.058594 15.40625 35.066406 15.792969 35.125 16.464844 C 35.160156 16.855469 35.199219 17.027344 35.292969 17.21875 C 35.402344 17.453125 35.613281 17.613281 35.882812 17.667969 C 36.210938 17.738281 36.492188 17.539062 36.625 17.148438 C 36.734375 16.84375 36.734375 16.847656 36.75 15.226562 C 36.769531 13.621094 36.769531 13.59375 36.867188 13.40625 C 37.003906 13.132812 37.351562 12.878906 37.707031 12.789062 C 37.875 12.746094 38.167969 12.738281 38.332031 12.773438 C 38.472656 12.804688 38.648438 12.886719 38.753906 12.972656 C 39.039062 13.214844 39.175781 13.558594 39.175781 14.042969 C 39.175781 14.488281 39.210938 15.96875 39.230469 16.261719 C 39.273438 16.914062 39.382812 17.320312 39.5625 17.46875 C 39.75 17.628906 40.070312 17.664062 40.398438 17.5625 C 40.6875 17.476562 40.796875 17.214844 40.828125 16.523438 C 40.835938 16.296875 40.855469 15.941406 40.867188 15.726562 C 40.890625 15.292969 40.882812 14.796875 40.839844 13.9375 C 40.792969 13.117188 40.738281 12.777344 40.597656 12.410156 C 40.277344 11.613281 39.484375 11.078125 38.480469 10.984375 C 37.941406 10.9375 37.136719 11.296875 36.867188 11.707031 C 36.832031 11.753906 36.800781 11.792969 36.792969 11.792969 C 36.785156 11.789062 36.769531 11.679688 36.757812 11.550781 C 36.730469 11.230469 36.679688 11.085938 36.554688 10.945312 C 36.4375 10.816406 36.324219 10.757812 36.113281 10.707031 C 35.929688 10.664062 35.820312 10.660156 35.691406 10.695312 Z M 35.691406 10.695312 "/>
<path style=" stroke:none;fill-rule:nonzero;fill:rgb(0%,0%,0%);fill-opacity:1;" d="M 28.488281 10.753906 C 28.351562 10.785156 28.164062 10.875 28.070312 10.957031 C 27.929688 11.082031 27.828125 11.378906 27.789062 11.773438 C 27.753906 12.105469 27.753906 14.152344 27.785156 14.613281 C 27.84375 15.480469 27.929688 15.914062 28.125 16.367188 C 28.347656 16.871094 28.617188 17.179688 29.039062 17.40625 C 29.367188 17.582031 29.738281 17.695312 30.164062 17.757812 C 30.480469 17.800781 31.105469 17.789062 31.421875 17.730469 C 32.164062 17.59375 32.746094 17.269531 33.027344 16.839844 C 33.449219 16.195312 33.566406 15.5 33.589844 13.46875 C 33.609375 11.789062 33.515625 11.175781 33.207031 10.941406 C 33.066406 10.839844 32.875 10.78125 32.652344 10.78125 C 32.300781 10.78125 31.992188 10.945312 31.882812 11.199219 C 31.765625 11.457031 31.75 11.820312 31.753906 13.480469 C 31.757812 14.890625 31.753906 14.976562 31.679688 15.296875 C 31.621094 15.546875 31.5 15.71875 31.324219 15.808594 C 31.175781 15.886719 30.871094 15.9375 30.613281 15.929688 C 30.402344 15.925781 30.382812 15.921875 30.246094 15.851562 C 29.964844 15.710938 29.757812 15.421875 29.644531 15.007812 C 29.542969 14.621094 29.527344 14.382812 29.480469 12.546875 C 29.472656 12.144531 29.453125 11.746094 29.441406 11.660156 C 29.371094 11.128906 29.175781 10.847656 28.816406 10.757812 C 28.683594 10.71875 28.644531 10.71875 28.488281 10.753906 Z M 28.488281 10.753906 "/>
</g>
</svg>
