<?xml version="1.0" encoding="UTF-8"?>
<svg xmlns="http://www.w3.org/2000/svg" xmlns:xlink="http://www.w3.org/1999/xlink" width="55pt" height="33pt" viewBox="0 0 55 33" version="1.1">
<g id="surface1">
<path style=" stroke:none;fill-rule:nonzero;fill:rgb(0%,0%,0%);fill-opacity:1;" d="M 23.804688 8.128906 C 23.539062 8.175781 23.328125 8.355469 23.25 8.601562 C 23.132812 8.976562 23.140625 8.671875 23.148438 13.84375 L 23.152344 18.621094 L 23.207031 18.761719 C 23.355469 19.136719 23.550781 19.304688 23.914062 19.355469 C 24.238281 19.398438 24.503906 19.316406 24.691406 19.121094 C 24.824219 18.980469 24.898438 18.847656 24.964844 18.625 C 25.007812 18.476562 25.011719 18.421875 25.023438 17.175781 C 25.039062 15.871094 25.058594 15.542969 25.140625 15.082031 C 25.210938 14.6875 25.402344 14.464844 25.777344 14.351562 C 25.878906 14.320312 25.96875 14.3125 26.261719 14.3125 C 26.582031 14.3125 26.636719 14.320312 26.742188 14.363281 C 26.921875 14.433594 27.050781 14.5625 27.164062 14.78125 C 27.402344 15.234375 27.449219 15.605469 27.46875 17.132812 C 27.480469 18.09375 27.496094 18.308594 27.5625 18.574219 C 27.667969 18.984375 27.820312 19.210938 28.0625 19.304688 C 28.230469 19.375 28.5625 19.375 28.730469 19.304688 C 28.914062 19.226562 29.066406 18.988281 29.136719 18.683594 C 29.253906 18.15625 29.277344 17.011719 29.214844 15.46875 C 29.167969 14.46875 29.03125 13.980469 28.648438 13.460938 C 28.285156 12.976562 27.628906 12.589844 26.949219 12.460938 C 26.671875 12.410156 26.054688 12.414062 25.734375 12.464844 C 25.523438 12.5 25.179688 12.578125 25.085938 12.613281 C 25.046875 12.628906 25.046875 12.578125 25.046875 11.730469 C 25.046875 10.710938 25.015625 9.40625 24.980469 9.097656 C 24.957031 8.859375 24.898438 8.652344 24.816406 8.503906 C 24.753906 8.378906 24.570312 8.234375 24.394531 8.167969 C 24.257812 8.113281 23.984375 8.09375 23.804688 8.128906 Z M 23.804688 8.128906 "/>
<path style=" stroke:none;fill-rule:nonzero;fill:rgb(0%,0%,0%);fill-opacity:1;" d="M 13.074219 8.214844 C 11.808594 8.226562 11.664062 8.234375 11.394531 8.296875 C 11.140625 8.359375 10.929688 8.511719 10.84375 8.695312 C 10.777344 8.839844 10.78125 9.242188 10.84375 9.453125 C 10.925781 9.707031 11.117188 9.867188 11.460938 9.972656 C 11.800781 10.074219 11.886719 10.082031 13.050781 10.101562 C 13.664062 10.109375 14.179688 10.125 14.203125 10.132812 C 14.246094 10.144531 14.246094 10.164062 14.246094 12.789062 C 14.246094 15.183594 14.242188 15.460938 14.210938 15.691406 C 14.164062 16.015625 14.097656 16.335938 14.042969 16.496094 C 13.980469 16.679688 13.828125 16.96875 13.734375 17.082031 C 13.558594 17.296875 13.289062 17.46875 13.019531 17.539062 C 12.785156 17.597656 12.339844 17.570312 12.007812 17.472656 C 11.820312 17.417969 11.664062 17.3125 11.3125 16.996094 C 10.8125 16.554688 10.632812 16.453125 10.378906 16.46875 C 10.128906 16.492188 9.800781 16.710938 9.6875 16.933594 C 9.539062 17.226562 9.550781 17.621094 9.71875 18.003906 C 9.859375 18.320312 10.167969 18.691406 10.476562 18.90625 C 10.855469 19.175781 11.445312 19.394531 12.046875 19.492188 C 12.378906 19.546875 13.066406 19.554688 13.410156 19.511719 C 13.921875 19.449219 14.496094 19.296875 14.808594 19.136719 C 15.578125 18.75 16.121094 17.960938 16.316406 16.9375 C 16.394531 16.542969 16.453125 16.066406 16.480469 15.605469 C 16.511719 15.09375 16.511719 13.710938 16.480469 13.101562 C 16.445312 12.378906 16.414062 10.808594 16.429688 10.425781 L 16.441406 10.085938 L 17.027344 10.074219 C 17.625 10.058594 17.957031 10.027344 18.148438 9.960938 C 18.289062 9.914062 18.492188 9.730469 18.566406 9.582031 C 18.617188 9.484375 18.621094 9.449219 18.621094 9.21875 C 18.621094 8.902344 18.578125 8.777344 18.421875 8.605469 C 18.296875 8.46875 18.25 8.441406 18 8.355469 C 17.664062 8.242188 17.5625 8.234375 16.203125 8.210938 C 15.511719 8.203125 14.824219 8.191406 14.671875 8.195312 C 14.519531 8.195312 13.800781 8.207031 13.074219 8.214844 Z M 13.074219 8.214844 "/>
<path style=" stroke:none;fill-rule:nonzero;fill:rgb(0%,0%,0%);fill-opacity:1;" d="M 20.515625 8.414062 C 20.207031 8.527344 20 8.773438 19.949219 9.097656 C 19.921875 9.246094 19.953125 9.5 20.015625 9.671875 C 20.183594 10.132812 20.59375 10.359375 21.070312 10.261719 C 21.488281 10.171875 21.78125 9.902344 21.851562 9.53125 C 21.917969 9.191406 21.722656 8.8125 21.347656 8.5625 C 21.148438 8.433594 20.984375 8.382812 20.769531 8.382812 C 20.671875 8.382812 20.558594 8.394531 20.515625 8.414062 Z M 20.515625 8.414062 "/>
<path style=" stroke:none;fill-rule:nonzero;fill:rgb(0%,0%,0%);fill-opacity:1;" d="M 20.589844 11.628906 C 20.097656 11.714844 19.90625 11.996094 19.824219 12.777344 C 19.792969 13.039062 19.792969 15.183594 19.820312 16.78125 C 19.84375 18.089844 19.863281 18.285156 19.972656 18.617188 C 20.105469 19.019531 20.289062 19.210938 20.628906 19.28125 C 21.050781 19.367188 21.375 19.214844 21.554688 18.835938 C 21.648438 18.636719 21.671875 18.542969 21.722656 18.214844 C 21.75 18.015625 21.753906 17.648438 21.761719 15.734375 C 21.773438 12.167969 21.746094 11.910156 21.332031 11.71875 C 21.117188 11.621094 20.84375 11.585938 20.589844 11.628906 Z M 20.589844 11.628906 "/>
<path style=" stroke:none;fill-rule:nonzero;fill:rgb(0%,0%,0%);fill-opacity:1;" d="M 39.257812 11.765625 C 39 11.839844 38.777344 12.03125 38.679688 12.28125 C 38.5625 12.574219 38.5625 12.554688 38.5625 14.847656 C 38.5625 16.949219 38.574219 17.375 38.640625 18.109375 C 38.675781 18.539062 38.71875 18.726562 38.820312 18.941406 C 38.945312 19.195312 39.175781 19.375 39.472656 19.433594 C 39.832031 19.511719 40.140625 19.292969 40.289062 18.863281 C 40.40625 18.527344 40.40625 18.53125 40.425781 16.75 C 40.445312 14.984375 40.449219 14.953125 40.550781 14.746094 C 40.703125 14.449219 41.085938 14.167969 41.476562 14.066406 C 41.660156 14.019531 41.984375 14.011719 42.164062 14.050781 C 42.320312 14.082031 42.511719 14.175781 42.628906 14.273438 C 42.941406 14.535156 43.09375 14.914062 43.09375 15.445312 C 43.09375 15.9375 43.132812 17.566406 43.152344 17.886719 C 43.203125 18.605469 43.324219 19.050781 43.519531 19.214844 C 43.726562 19.390625 44.078125 19.429688 44.441406 19.320312 C 44.757812 19.222656 44.875 18.9375 44.910156 18.175781 C 44.921875 17.929688 44.941406 17.535156 44.953125 17.296875 C 44.980469 16.824219 44.972656 16.277344 44.921875 15.332031 C 44.875 14.425781 44.8125 14.054688 44.65625 13.652344 C 44.308594 12.773438 43.433594 12.183594 42.328125 12.085938 C 41.738281 12.027344 40.851562 12.425781 40.550781 12.875 C 40.515625 12.929688 40.480469 12.972656 40.472656 12.972656 C 40.464844 12.96875 40.445312 12.847656 40.433594 12.703125 C 40.402344 12.355469 40.347656 12.191406 40.210938 12.039062 C 40.082031 11.898438 39.957031 11.832031 39.722656 11.777344 C 39.523438 11.730469 39.402344 11.726562 39.257812 11.765625 Z M 39.257812 11.765625 "/>
<path style=" stroke:none;fill-rule:nonzero;fill:rgb(0%,0%,0%);fill-opacity:1;" d="M 31.335938 11.828125 C 31.183594 11.863281 30.980469 11.964844 30.875 12.054688 C 30.722656 12.1875 30.609375 12.515625 30.566406 12.949219 C 30.53125 13.316406 30.527344 15.570312 30.5625 16.074219 C 30.628906 17.027344 30.722656 17.503906 30.941406 18.003906 C 31.179688 18.554688 31.480469 18.894531 31.941406 19.144531 C 32.300781 19.339844 32.710938 19.464844 33.183594 19.535156 C 33.527344 19.582031 34.214844 19.566406 34.566406 19.503906 C 35.378906 19.351562 36.019531 18.996094 36.328125 18.523438 C 36.796875 17.816406 36.925781 17.050781 36.949219 14.816406 C 36.96875 12.96875 36.867188 12.292969 36.527344 12.039062 C 36.375 11.921875 36.164062 11.863281 35.917969 11.863281 C 35.53125 11.863281 35.191406 12.042969 35.070312 12.316406 C 34.945312 12.605469 34.921875 13.003906 34.929688 14.828125 C 34.9375 16.382812 34.929688 16.472656 34.847656 16.828125 C 34.78125 17.101562 34.648438 17.292969 34.457031 17.390625 C 34.292969 17.472656 33.957031 17.53125 33.675781 17.523438 C 33.441406 17.515625 33.421875 17.511719 33.269531 17.4375 C 32.960938 17.28125 32.734375 16.960938 32.609375 16.507812 C 32.496094 16.082031 32.480469 15.820312 32.429688 13.804688 C 32.417969 13.359375 32.398438 12.921875 32.386719 12.828125 C 32.308594 12.242188 32.09375 11.933594 31.699219 11.832031 C 31.550781 11.792969 31.507812 11.792969 31.335938 11.828125 Z M 31.335938 11.828125 "/>
</g>
</svg>
