<svg xmlns="http://www.w3.org/2000/svg" xmlns:xlink="http://www.w3.org/1999/xlink" width="30pt" height="30pt" viewBox="0 0 30 30" version="1.1">
<g id="surface1">
<path style=" stroke:none;fill-rule:nonzero;fill:rgb(47.45098%,73.333333%,73.72549%);fill-opacity:1;" d="M 5.753906 20.40625 L 4.886719 20.40625 C 4.503906 19.488281 3.597656 18.84375 2.542969 18.84375 C 1.140625 18.84375 0 19.984375 0 21.386719 C 0 22.785156 1.140625 23.925781 2.542969 23.925781 C 3.597656 23.925781 4.503906 23.28125 4.886719 22.363281 L 7.710938 22.363281 L 7.710938 19.429688 L 5.753906 19.429688 Z M 2.542969 21.96875 C 2.21875 21.96875 1.957031 21.707031 1.957031 21.386719 C 1.957031 21.0625 2.21875 20.800781 2.542969 20.800781 C 2.863281 20.800781 3.125 21.0625 3.125 21.386719 C 3.125 21.707031 2.863281 21.96875 2.542969 21.96875 Z M 2.542969 21.96875 "/>
<path style=" stroke:none;fill-rule:nonzero;fill:rgb(47.45098%,73.333333%,73.72549%);fill-opacity:1;" d="M 5.753906 15.105469 L 7.710938 15.105469 L 7.710938 17.472656 L 5.753906 17.472656 Z M 5.753906 15.105469 "/>
<path style=" stroke:none;fill-rule:nonzero;fill:rgb(27.45098%,43.529412%,43.921569%);fill-opacity:1;" d="M 22.289062 15.105469 L 24.246094 15.105469 L 24.246094 17.472656 L 22.289062 17.472656 Z M 22.289062 15.105469 "/>
<path style=" stroke:none;fill-rule:nonzero;fill:rgb(27.45098%,43.529412%,43.921569%);fill-opacity:1;" d="M 27.457031 18.84375 C 26.402344 18.84375 25.496094 19.492188 25.113281 20.40625 L 24.246094 20.40625 L 24.246094 19.429688 L 22.289062 19.429688 L 22.289062 22.363281 L 25.113281 22.363281 C 25.496094 23.28125 26.402344 23.925781 27.457031 23.925781 C 28.859375 23.925781 30 22.789062 30 21.386719 C 30 19.984375 28.859375 18.84375 27.457031 18.84375 Z M 27.457031 21.96875 C 27.136719 21.96875 26.875 21.707031 26.875 21.386719 C 26.875 21.0625 27.136719 20.800781 27.457031 20.800781 C 27.78125 20.800781 28.042969 21.0625 28.042969 21.386719 C 28.042969 21.707031 27.78125 21.96875 27.457031 21.96875 Z M 27.457031 21.96875 "/>
<path style=" stroke:none;fill-rule:nonzero;fill:rgb(47.45098%,73.333333%,73.72549%);fill-opacity:1;" d="M 11.265625 20.117188 L 13.222656 20.117188 L 13.222656 21.972656 L 11.265625 21.972656 Z M 11.265625 20.117188 "/>
<path style=" stroke:none;fill-rule:nonzero;fill:rgb(47.45098%,73.333333%,73.72549%);fill-opacity:1;" d="M 13.222656 25.023438 L 13.222656 23.925781 L 11.265625 23.925781 L 11.265625 25.023438 C 10.347656 25.410156 9.703125 26.316406 9.703125 27.371094 C 9.703125 28.769531 10.84375 29.910156 12.246094 29.910156 C 13.644531 29.910156 14.785156 28.769531 14.785156 27.371094 C 14.785156 26.316406 14.140625 25.410156 13.222656 25.023438 Z M 12.246094 27.953125 C 11.921875 27.953125 11.660156 27.691406 11.660156 27.371094 C 11.660156 27.046875 11.921875 26.785156 12.246094 26.785156 C 12.566406 26.785156 12.828125 27.046875 12.828125 27.371094 C 12.828125 27.691406 12.566406 27.953125 12.246094 27.953125 Z M 12.246094 27.953125 "/>
<path style=" stroke:none;fill-rule:nonzero;fill:rgb(27.45098%,43.529412%,43.921569%);fill-opacity:1;" d="M 16.777344 20.117188 L 18.734375 20.117188 L 18.734375 21.972656 L 16.777344 21.972656 Z M 16.777344 20.117188 "/>
<path style=" stroke:none;fill-rule:nonzero;fill:rgb(27.45098%,43.529412%,43.921569%);fill-opacity:1;" d="M 18.734375 25.023438 L 18.734375 23.925781 L 16.777344 23.925781 L 16.777344 25.023438 C 15.859375 25.410156 15.214844 26.316406 15.214844 27.371094 C 15.214844 28.769531 16.355469 29.910156 17.753906 29.910156 C 19.15625 29.910156 20.296875 28.769531 20.296875 27.371094 C 20.296875 26.316406 19.652344 25.410156 18.734375 25.023438 Z M 17.753906 27.953125 C 17.433594 27.953125 17.171875 27.691406 17.171875 27.371094 C 17.171875 27.046875 17.433594 26.785156 17.753906 26.785156 C 18.078125 26.785156 18.339844 27.046875 18.339844 27.371094 C 18.339844 27.691406 18.078125 27.953125 17.753906 27.953125 Z M 17.753906 27.953125 "/>
<path style=" stroke:none;fill-rule:nonzero;fill:rgb(78.431373%,97.647059%,98.039216%);fill-opacity:1;" d="M 22.457031 15.683594 L 7.542969 15.683594 C 4.722656 15.683594 2.429688 13.464844 2.429688 10.734375 C 2.429688 8.902344 3.460938 7.246094 5.097656 6.386719 C 5.371094 5.410156 5.945312 4.523438 6.75 3.859375 C 7.695312 3.074219 8.90625 2.640625 10.15625 2.640625 C 10.40625 2.640625 10.652344 2.65625 10.898438 2.691406 C 12.230469 1.050781 14.253906 0.0898438 16.441406 0.0898438 C 18.289062 0.0898438 20.03125 0.773438 21.355469 2.019531 C 22.46875 3.066406 23.179688 4.410156 23.40625 5.871094 C 24.414062 6.054688 25.339844 6.523438 26.078125 7.242188 C 27.039062 8.175781 27.570312 9.414062 27.570312 10.734375 C 27.570312 13.464844 25.277344 15.683594 22.457031 15.683594 Z M 22.457031 15.683594 "/>
<path style=" stroke:none;fill-rule:nonzero;fill:rgb(57.254902%,89.803922%,91.764706%);fill-opacity:1;" d="M 26.078125 7.242188 C 25.339844 6.523438 24.414062 6.054688 23.40625 5.871094 C 23.179688 4.410156 22.46875 3.066406 21.355469 2.019531 C 20.035156 0.773438 18.289062 0.0898438 16.441406 0.0898438 C 15.949219 0.0898438 15.46875 0.136719 15 0.230469 L 15 15.683594 L 22.457031 15.683594 C 25.277344 15.683594 27.570312 13.464844 27.570312 10.734375 C 27.570312 9.414062 27.039062 8.175781 26.078125 7.242188 Z M 26.078125 7.242188 "/>
<path style=" stroke:none;fill-rule:nonzero;fill:rgb(93.333333%,74.901961%,43.921569%);fill-opacity:1;" d="M 20.066406 14.34375 C 20.425781 13.964844 20.644531 13.453125 20.644531 12.890625 C 20.644531 11.789062 19.804688 10.882812 18.730469 10.78125 C 18.75 10.722656 18.765625 10.570312 18.765625 10.226562 C 18.765625 9.1875 17.921875 8.34375 16.882812 8.34375 C 15.84375 8.34375 15 9.1875 15 10.226562 C 15 9.1875 14.15625 8.34375 13.117188 8.34375 C 12.078125 8.34375 11.234375 9.1875 11.234375 10.226562 C 11.234375 10.570312 11.25 10.722656 11.269531 10.78125 C 10.195312 10.882812 9.355469 11.789062 9.355469 12.890625 C 9.355469 13.453125 9.574219 13.964844 9.933594 14.34375 L 9.925781 14.339844 C 9.570312 14.71875 9.355469 15.230469 9.355469 15.789062 C 9.355469 16.90625 10.21875 17.824219 11.316406 17.902344 C 11.265625 18.078125 11.234375 18.261719 11.234375 18.453125 C 11.234375 19.492188 12.078125 20.332031 13.117188 20.332031 C 14.15625 20.332031 15 19.492188 15 18.453125 C 15 19.492188 15.84375 20.332031 16.882812 20.332031 C 17.921875 20.332031 18.765625 19.492188 18.765625 18.453125 C 18.765625 18.261719 18.734375 18.078125 18.683594 17.902344 C 19.78125 17.824219 20.644531 16.90625 20.644531 15.789062 C 20.644531 15.230469 20.429688 14.71875 20.070312 14.339844 Z M 20.066406 14.34375 "/>
<path style=" stroke:none;fill-rule:nonzero;fill:rgb(90.588235%,61.176471%,14.509804%);fill-opacity:1;" d="M 20.066406 14.34375 C 20.425781 13.964844 20.644531 13.453125 20.644531 12.890625 C 20.644531 11.773438 19.78125 10.855469 18.683594 10.777344 C 18.683594 10.777344 18.765625 11.035156 18.765625 10.226562 C 18.765625 9.1875 17.921875 8.34375 16.882812 8.34375 C 15.84375 8.34375 15 9.1875 15 10.226562 L 15 18.453125 C 15 19.492188 15.84375 20.332031 16.882812 20.332031 C 17.921875 20.332031 18.765625 19.492188 18.765625 18.453125 C 18.765625 18.261719 18.734375 18.078125 18.683594 17.902344 C 19.78125 17.824219 20.644531 16.90625 20.644531 15.789062 C 20.644531 15.230469 20.429688 14.71875 20.070312 14.339844 Z M 20.066406 14.34375 "/>
<path style=" stroke:none;fill-rule:nonzero;fill:rgb(95.294118%,83.137255%,61.568627%);fill-opacity:1;" d="M 21.625 12.890625 C 21.625 11.621094 20.847656 10.515625 19.734375 10.039062 C 19.636719 8.550781 18.394531 7.367188 16.882812 7.367188 C 16.160156 7.367188 15.503906 7.636719 15 8.078125 C 14.496094 7.636719 13.839844 7.367188 13.117188 7.367188 C 11.605469 7.367188 10.363281 8.550781 10.265625 10.039062 C 9.152344 10.515625 8.375 11.621094 8.375 12.890625 C 8.375 13.414062 8.507812 13.90625 8.738281 14.339844 C 8.5 14.78125 8.375 15.277344 8.375 15.789062 C 8.375 17.070312 9.15625 18.167969 10.265625 18.640625 C 10.363281 20.128906 11.605469 21.3125 13.117188 21.3125 C 13.839844 21.3125 14.496094 21.042969 15 20.601562 C 15.503906 21.042969 16.160156 21.3125 16.882812 21.3125 C 18.394531 21.3125 19.636719 20.128906 19.734375 18.640625 C 20.84375 18.167969 21.625 17.070312 21.625 15.789062 C 21.625 15.277344 21.5 14.78125 21.261719 14.339844 C 21.492188 13.90625 21.625 13.414062 21.625 12.890625 Z M 13.117188 19.355469 C 12.734375 19.355469 12.410156 19.117188 12.277344 18.78125 C 12.847656 18.625 13.367188 18.3125 13.769531 17.867188 L 12.320312 16.554688 C 12.101562 16.796875 11.800781 16.929688 11.472656 16.929688 C 10.84375 16.929688 10.332031 16.417969 10.332031 15.789062 C 10.332031 15.78125 10.332031 15.777344 10.332031 15.769531 C 10.6875 15.910156 11.070312 15.988281 11.472656 15.988281 L 11.472656 14.03125 C 10.84375 14.03125 10.332031 13.519531 10.332031 12.890625 C 10.332031 12.5 10.53125 12.152344 10.835938 11.945312 C 11.15625 12.371094 11.59375 12.710938 12.113281 12.90625 L 12.800781 11.074219 C 12.449219 10.941406 12.214844 10.601562 12.214844 10.226562 C 12.214844 9.730469 12.621094 9.324219 13.117188 9.324219 C 13.617188 9.324219 14.023438 9.730469 14.023438 10.226562 L 14.023438 18.453125 C 14.023438 18.949219 13.617188 19.355469 13.117188 19.355469 Z M 16.882812 19.355469 C 16.382812 19.355469 15.976562 18.949219 15.976562 18.453125 L 15.976562 10.226562 C 15.976562 9.730469 16.382812 9.324219 16.882812 9.324219 C 17.378906 9.324219 17.785156 9.730469 17.785156 10.226562 C 17.785156 10.601562 17.550781 10.941406 17.199219 11.074219 L 17.886719 12.90625 C 18.40625 12.710938 18.84375 12.371094 19.164062 11.945312 C 19.46875 12.152344 19.667969 12.5 19.667969 12.890625 C 19.667969 13.519531 19.15625 14.03125 18.527344 14.03125 L 18.527344 15.988281 C 18.929688 15.988281 19.3125 15.910156 19.667969 15.769531 C 19.667969 15.777344 19.667969 15.78125 19.667969 15.789062 C 19.667969 16.417969 19.15625 16.929688 18.527344 16.929688 C 18.199219 16.929688 17.902344 16.796875 17.679688 16.554688 L 16.230469 17.867188 C 16.632812 18.3125 17.152344 18.625 17.722656 18.78125 C 17.589844 19.117188 17.265625 19.355469 16.882812 19.355469 Z M 16.882812 19.355469 "/>
<path style=" stroke:none;fill-rule:nonzero;fill:rgb(93.333333%,74.901961%,43.921569%);fill-opacity:1;" d="M 21.625 12.890625 C 21.625 11.621094 20.847656 10.515625 19.734375 10.039062 C 19.636719 8.550781 18.394531 7.367188 16.882812 7.367188 C 16.160156 7.367188 15.503906 7.636719 15 8.078125 C 15 9.910156 15 19.015625 15 20.601562 C 15.503906 21.042969 16.160156 21.3125 16.882812 21.3125 C 18.394531 21.3125 19.636719 20.128906 19.734375 18.640625 C 20.84375 18.167969 21.625 17.070312 21.625 15.789062 C 21.625 15.277344 21.5 14.78125 21.261719 14.339844 C 21.492188 13.90625 21.625 13.414062 21.625 12.890625 Z M 16.882812 19.355469 C 16.382812 19.355469 15.976562 18.949219 15.976562 18.453125 L 15.976562 10.226562 C 15.976562 9.730469 16.382812 9.324219 16.882812 9.324219 C 17.378906 9.324219 17.785156 9.730469 17.785156 10.226562 C 17.785156 10.601562 17.550781 10.941406 17.199219 11.074219 L 17.886719 12.90625 C 18.40625 12.710938 18.84375 12.371094 19.164062 11.945312 C 19.46875 12.152344 19.667969 12.5 19.667969 12.890625 C 19.667969 13.519531 19.15625 14.03125 18.527344 14.03125 L 18.527344 15.988281 C 18.929688 15.988281 19.3125 15.910156 19.667969 15.769531 C 19.667969 15.777344 19.667969 15.78125 19.667969 15.789062 C 19.667969 16.417969 19.15625 16.929688 18.527344 16.929688 C 18.199219 16.929688 17.902344 16.796875 17.679688 16.554688 L 16.230469 17.867188 C 16.632812 18.3125 17.152344 18.625 17.722656 18.78125 C 17.589844 19.117188 17.265625 19.355469 16.882812 19.355469 Z M 16.882812 19.355469 "/>
</g>
</svg>
