<?xml version="1.0" encoding="UTF-8"?>
<svg xmlns="http://www.w3.org/2000/svg" xmlns:xlink="http://www.w3.org/1999/xlink" width="80pt" height="48pt" viewBox="0 0 80 48" version="1.1">
<g id="surface1">
<path style=" stroke:none;fill-rule:nonzero;fill:rgb(0%,0%,0%);fill-opacity:1;" d="M 34.625 11.824219 C 34.238281 11.890625 33.929688 12.15625 33.820312 12.511719 C 33.648438 13.058594 33.660156 12.613281 33.667969 20.140625 L 33.675781 27.082031 L 33.757812 27.289062 C 33.96875 27.835938 34.253906 28.078125 34.785156 28.152344 C 35.253906 28.214844 35.644531 28.097656 35.917969 27.8125 C 36.109375 27.609375 36.214844 27.417969 36.3125 27.09375 C 36.375 26.875 36.378906 26.792969 36.398438 24.984375 C 36.421875 23.085938 36.449219 22.609375 36.570312 21.9375 C 36.671875 21.363281 36.949219 21.039062 37.492188 20.875 C 37.644531 20.828125 37.773438 20.816406 38.199219 20.820312 C 38.664062 20.820312 38.742188 20.832031 38.898438 20.890625 C 39.15625 20.992188 39.34375 21.179688 39.515625 21.5 C 39.859375 22.160156 39.925781 22.699219 39.953125 24.921875 C 39.972656 26.316406 39.992188 26.628906 40.09375 27.019531 C 40.242188 27.609375 40.46875 27.941406 40.816406 28.082031 C 41.066406 28.179688 41.546875 28.179688 41.789062 28.078125 C 42.054688 27.964844 42.28125 27.621094 42.378906 27.175781 C 42.550781 26.40625 42.585938 24.742188 42.492188 22.5 C 42.425781 21.046875 42.226562 20.332031 41.667969 19.578125 C 41.144531 18.875 40.1875 18.3125 39.199219 18.125 C 38.796875 18.050781 37.898438 18.054688 37.429688 18.128906 C 37.125 18.179688 36.625 18.296875 36.484375 18.347656 C 36.433594 18.371094 36.429688 18.296875 36.429688 17.066406 C 36.429688 15.582031 36.382812 13.683594 36.335938 13.230469 C 36.296875 12.890625 36.21875 12.585938 36.097656 12.367188 C 36.003906 12.1875 35.738281 11.976562 35.484375 11.878906 C 35.28125 11.800781 34.886719 11.773438 34.625 11.824219 Z M 34.625 11.824219 "/>
<path style=" stroke:none;fill-rule:nonzero;fill:rgb(0%,0%,0%);fill-opacity:1;" d="M 19.015625 11.949219 C 17.179688 11.964844 16.964844 11.976562 16.574219 12.070312 C 16.207031 12.15625 15.898438 12.378906 15.773438 12.648438 C 15.675781 12.859375 15.679688 13.441406 15.773438 13.75 C 15.890625 14.117188 16.171875 14.355469 16.671875 14.503906 C 17.167969 14.652344 17.292969 14.664062 18.984375 14.691406 C 19.875 14.707031 20.628906 14.726562 20.660156 14.738281 C 20.722656 14.757812 20.722656 14.785156 20.722656 18.605469 C 20.722656 22.085938 20.71875 22.488281 20.667969 22.824219 C 20.601562 23.296875 20.503906 23.757812 20.425781 23.996094 C 20.335938 24.257812 20.113281 24.683594 19.976562 24.84375 C 19.71875 25.160156 19.332031 25.40625 18.9375 25.507812 C 18.59375 25.59375 17.949219 25.554688 17.46875 25.417969 C 17.191406 25.332031 16.964844 25.183594 16.453125 24.722656 C 15.730469 24.078125 15.464844 23.929688 15.09375 23.957031 C 14.734375 23.988281 14.253906 24.308594 14.09375 24.632812 C 13.875 25.054688 13.890625 25.632812 14.136719 26.183594 C 14.339844 26.644531 14.789062 27.183594 15.238281 27.5 C 15.789062 27.890625 16.648438 28.214844 17.523438 28.351562 C 18.007812 28.429688 19.007812 28.445312 19.507812 28.382812 C 20.253906 28.289062 21.085938 28.066406 21.542969 27.835938 C 22.660156 27.273438 23.445312 26.125 23.734375 24.636719 C 23.847656 24.0625 23.933594 23.367188 23.972656 22.699219 C 24.015625 21.957031 24.015625 19.945312 23.972656 19.058594 C 23.921875 18.007812 23.875 15.71875 23.898438 15.167969 L 23.917969 14.667969 L 24.765625 14.652344 C 25.636719 14.628906 26.121094 14.582031 26.398438 14.492188 C 26.601562 14.421875 26.898438 14.152344 27.007812 13.9375 C 27.078125 13.796875 27.085938 13.746094 27.085938 13.410156 C 27.085938 12.949219 27.023438 12.769531 26.792969 12.515625 C 26.617188 12.316406 26.546875 12.277344 26.183594 12.15625 C 25.691406 11.988281 25.546875 11.976562 23.570312 11.945312 C 22.5625 11.929688 21.558594 11.917969 21.339844 11.917969 C 21.121094 11.921875 20.074219 11.933594 19.015625 11.949219 Z M 19.015625 11.949219 "/>
<path style=" stroke:none;fill-rule:nonzero;fill:rgb(0%,0%,0%);fill-opacity:1;" d="M 29.84375 12.238281 C 29.390625 12.40625 29.09375 12.761719 29.015625 13.230469 C 28.976562 13.449219 29.023438 13.820312 29.113281 14.070312 C 29.359375 14.742188 29.957031 15.070312 30.644531 14.925781 C 31.257812 14.796875 31.679688 14.40625 31.785156 13.863281 C 31.882812 13.371094 31.59375 12.820312 31.050781 12.457031 C 30.761719 12.265625 30.523438 12.191406 30.210938 12.195312 C 30.066406 12.195312 29.90625 12.214844 29.84375 12.238281 Z M 29.84375 12.238281 "/>
<path style=" stroke:none;fill-rule:nonzero;fill:rgb(0%,0%,0%);fill-opacity:1;" d="M 29.949219 16.917969 C 29.230469 17.035156 28.957031 17.449219 28.832031 18.585938 C 28.789062 18.964844 28.789062 22.085938 28.832031 24.410156 C 28.863281 26.316406 28.890625 26.59375 29.050781 27.078125 C 29.242188 27.667969 29.515625 27.941406 30.003906 28.042969 C 30.617188 28.171875 31.09375 27.949219 31.351562 27.394531 C 31.484375 27.109375 31.523438 26.972656 31.59375 26.496094 C 31.632812 26.207031 31.644531 25.671875 31.652344 22.886719 C 31.671875 17.699219 31.628906 17.324219 31.027344 17.046875 C 30.714844 16.902344 30.316406 16.855469 29.949219 16.917969 Z M 29.949219 16.917969 "/>
<path style=" stroke:none;fill-rule:nonzero;fill:rgb(0%,0%,0%);fill-opacity:1;" d="M 57.105469 17.109375 C 56.726562 17.21875 56.40625 17.5 56.261719 17.859375 C 56.09375 18.289062 56.09375 18.261719 56.09375 21.597656 C 56.09375 24.652344 56.109375 25.273438 56.203125 26.34375 C 56.257812 26.964844 56.320312 27.242188 56.46875 27.550781 C 56.644531 27.921875 56.980469 28.179688 57.414062 28.269531 C 57.933594 28.378906 58.382812 28.066406 58.601562 27.4375 C 58.773438 26.949219 58.773438 26.957031 58.800781 24.359375 C 58.832031 21.792969 58.832031 21.75 58.984375 21.449219 C 59.207031 21.015625 59.761719 20.609375 60.332031 20.460938 C 60.597656 20.390625 61.070312 20.378906 61.328125 20.433594 C 61.558594 20.484375 61.835938 20.617188 62.007812 20.757812 C 62.460938 21.140625 62.679688 21.691406 62.679688 22.464844 C 62.679688 23.183594 62.738281 25.550781 62.769531 26.019531 C 62.839844 27.066406 63.015625 27.710938 63.300781 27.949219 C 63.601562 28.203125 64.113281 28.261719 64.640625 28.101562 C 65.101562 27.964844 65.273438 27.542969 65.324219 26.433594 C 65.339844 26.078125 65.371094 25.507812 65.386719 25.160156 C 65.425781 24.46875 65.414062 23.675781 65.339844 22.300781 C 65.269531 20.984375 65.179688 20.441406 64.953125 19.859375 C 64.445312 18.582031 63.175781 17.722656 61.566406 17.578125 C 60.707031 17.496094 59.417969 18.074219 58.984375 18.726562 C 58.933594 18.808594 58.878906 18.871094 58.867188 18.867188 C 58.855469 18.859375 58.832031 18.6875 58.8125 18.476562 C 58.765625 17.96875 58.6875 17.734375 58.484375 17.511719 C 58.296875 17.308594 58.121094 17.214844 57.777344 17.128906 C 57.488281 17.0625 57.3125 17.054688 57.105469 17.109375 Z M 57.105469 17.109375 "/>
<path style=" stroke:none;fill-rule:nonzero;fill:rgb(0%,0%,0%);fill-opacity:1;" d="M 45.582031 17.207031 C 45.359375 17.257812 45.0625 17.402344 44.910156 17.535156 C 44.6875 17.726562 44.523438 18.203125 44.460938 18.835938 C 44.410156 19.367188 44.40625 22.644531 44.457031 23.378906 C 44.550781 24.769531 44.6875 25.464844 45.003906 26.1875 C 45.355469 26.992188 45.789062 27.484375 46.460938 27.847656 C 46.984375 28.128906 47.578125 28.316406 48.265625 28.414062 C 48.765625 28.480469 49.769531 28.460938 50.277344 28.367188 C 51.460938 28.148438 52.390625 27.632812 52.84375 26.945312 C 53.519531 25.914062 53.707031 24.800781 53.746094 21.550781 C 53.773438 18.859375 53.628906 17.878906 53.132812 17.507812 C 52.90625 17.34375 52.601562 17.253906 52.242188 17.253906 C 51.679688 17.253906 51.1875 17.515625 51.011719 17.917969 C 50.828125 18.332031 50.796875 18.914062 50.804688 21.570312 C 50.816406 23.828125 50.808594 23.960938 50.6875 24.476562 C 50.589844 24.875 50.398438 25.152344 50.121094 25.292969 C 49.878906 25.417969 49.394531 25.5 48.980469 25.488281 C 48.644531 25.476562 48.617188 25.472656 48.394531 25.359375 C 47.941406 25.140625 47.613281 24.671875 47.433594 24.011719 C 47.269531 23.390625 47.242188 23.011719 47.167969 20.078125 C 47.152344 19.433594 47.125 18.792969 47.109375 18.65625 C 46.992188 17.808594 46.683594 17.359375 46.109375 17.210938 C 45.890625 17.152344 45.832031 17.152344 45.582031 17.207031 Z M 45.582031 17.207031 "/>
</g>
</svg>
