<?xml version="1.0" encoding="UTF-8"?>
<svg xmlns="http://www.w3.org/2000/svg" xmlns:xlink="http://www.w3.org/1999/xlink" width="50pt" height="40pt" viewBox="0 0 50 40" version="1.1">
<g id="surface1">
<path style=" stroke:none;fill-rule:nonzero;fill:rgb(0%,0%,0%);fill-opacity:1;" d="M 21.640625 9.851562 C 21.398438 9.910156 21.207031 10.128906 21.136719 10.425781 C 21.03125 10.882812 21.035156 10.511719 21.042969 16.78125 L 21.046875 22.570312 L 21.097656 22.742188 C 21.230469 23.195312 21.410156 23.398438 21.742188 23.460938 C 22.035156 23.511719 22.277344 23.414062 22.449219 23.175781 C 22.570312 23.007812 22.632812 22.847656 22.695312 22.578125 C 22.734375 22.398438 22.738281 22.328125 22.75 20.820312 C 22.761719 19.238281 22.78125 18.839844 22.855469 18.28125 C 22.917969 17.804688 23.09375 17.535156 23.433594 17.394531 C 23.527344 17.355469 23.609375 17.347656 23.875 17.351562 C 24.164062 17.351562 24.214844 17.359375 24.3125 17.410156 C 24.472656 17.496094 24.589844 17.648438 24.695312 17.917969 C 24.910156 18.46875 24.953125 18.914062 24.972656 20.769531 C 24.984375 21.929688 24.996094 22.191406 25.058594 22.515625 C 25.152344 23.007812 25.292969 23.285156 25.507812 23.398438 C 25.664062 23.484375 25.96875 23.484375 26.121094 23.398438 C 26.285156 23.304688 26.425781 23.015625 26.488281 22.648438 C 26.59375 22.007812 26.617188 20.621094 26.558594 18.75 C 26.515625 17.539062 26.390625 16.945312 26.042969 16.3125 C 25.714844 15.726562 25.117188 15.261719 24.5 15.105469 C 24.25 15.042969 23.6875 15.046875 23.394531 15.109375 C 23.203125 15.148438 22.890625 15.246094 22.804688 15.289062 C 22.769531 15.308594 22.769531 15.246094 22.769531 14.21875 C 22.769531 12.984375 22.742188 11.402344 22.710938 11.027344 C 22.6875 10.742188 22.636719 10.488281 22.5625 10.304688 C 22.5 10.15625 22.335938 9.980469 22.175781 9.898438 C 22.050781 9.835938 21.804688 9.8125 21.640625 9.851562 Z M 21.640625 9.851562 "/>
<path style=" stroke:none;fill-rule:nonzero;fill:rgb(0%,0%,0%);fill-opacity:1;" d="M 11.882812 9.957031 C 10.738281 9.972656 10.605469 9.980469 10.359375 10.058594 C 10.128906 10.132812 9.9375 10.316406 9.859375 10.539062 C 9.796875 10.714844 9.800781 11.199219 9.859375 11.457031 C 9.933594 11.765625 10.109375 11.960938 10.417969 12.085938 C 10.730469 12.210938 10.808594 12.21875 11.867188 12.242188 C 12.421875 12.253906 12.890625 12.273438 12.914062 12.28125 C 12.953125 12.296875 12.953125 12.320312 12.953125 15.503906 C 12.953125 18.40625 12.949219 18.738281 12.917969 19.019531 C 12.875 19.414062 12.816406 19.800781 12.765625 19.996094 C 12.710938 20.214844 12.570312 20.570312 12.488281 20.703125 C 12.324219 20.96875 12.082031 21.171875 11.835938 21.257812 C 11.621094 21.328125 11.21875 21.296875 10.917969 21.179688 C 10.746094 21.109375 10.605469 20.984375 10.28125 20.601562 C 9.832031 20.0625 9.664062 19.941406 9.433594 19.964844 C 9.210938 19.988281 8.910156 20.257812 8.808594 20.527344 C 8.671875 20.878906 8.683594 21.359375 8.835938 21.820312 C 8.960938 22.203125 9.246094 22.65625 9.523438 22.917969 C 9.871094 23.242188 10.40625 23.511719 10.953125 23.625 C 11.253906 23.691406 11.878906 23.703125 12.191406 23.652344 C 12.65625 23.574219 13.179688 23.390625 13.464844 23.195312 C 14.160156 22.730469 14.652344 21.773438 14.835938 20.53125 C 14.90625 20.050781 14.957031 19.472656 14.984375 18.917969 C 15.007812 18.296875 15.007812 16.621094 14.984375 15.882812 C 14.949219 15.003906 14.921875 13.097656 14.9375 12.640625 L 14.949219 12.226562 L 15.480469 12.210938 C 16.023438 12.191406 16.324219 12.152344 16.5 12.074219 C 16.625 12.019531 16.8125 11.792969 16.878906 11.613281 C 16.925781 11.496094 16.929688 11.457031 16.929688 11.175781 C 16.929688 10.792969 16.890625 10.640625 16.746094 10.429688 C 16.632812 10.265625 16.59375 10.230469 16.367188 10.128906 C 16.058594 9.988281 15.96875 9.980469 14.730469 9.953125 C 14.101562 9.941406 13.476562 9.929688 13.335938 9.933594 C 13.199219 9.9375 12.546875 9.945312 11.882812 9.957031 Z M 11.882812 9.957031 "/>
<path style=" stroke:none;fill-rule:nonzero;fill:rgb(0%,0%,0%);fill-opacity:1;" d="M 18.652344 10.199219 C 18.371094 10.335938 18.183594 10.636719 18.132812 11.027344 C 18.113281 11.207031 18.136719 11.515625 18.195312 11.726562 C 18.351562 12.285156 18.722656 12.558594 19.152344 12.4375 C 19.535156 12.332031 19.800781 12.003906 19.867188 11.554688 C 19.925781 11.140625 19.746094 10.683594 19.40625 10.378906 C 19.226562 10.222656 19.078125 10.160156 18.878906 10.160156 C 18.792969 10.160156 18.691406 10.175781 18.652344 10.199219 Z M 18.652344 10.199219 "/>
<path style=" stroke:none;fill-rule:nonzero;fill:rgb(0%,0%,0%);fill-opacity:1;" d="M 18.71875 14.097656 C 18.269531 14.199219 18.097656 14.539062 18.019531 15.488281 C 17.996094 15.804688 17.996094 18.40625 18.019531 20.34375 C 18.039062 21.929688 18.054688 22.164062 18.15625 22.5625 C 18.277344 23.054688 18.445312 23.285156 18.75 23.371094 C 19.136719 23.476562 19.433594 23.289062 19.59375 22.828125 C 19.679688 22.589844 19.703125 22.476562 19.746094 22.082031 C 19.769531 21.839844 19.777344 21.394531 19.78125 19.070312 C 19.792969 14.75 19.769531 14.4375 19.390625 14.207031 C 19.195312 14.085938 18.949219 14.046875 18.71875 14.097656 Z M 18.71875 14.097656 "/>
<path style=" stroke:none;fill-rule:nonzero;fill:rgb(0%,0%,0%);fill-opacity:1;" d="M 35.691406 14.257812 C 35.453125 14.347656 35.253906 14.582031 35.164062 14.882812 C 35.058594 15.242188 35.058594 15.21875 35.058594 18 C 35.058594 20.542969 35.066406 21.058594 35.125 21.953125 C 35.160156 22.472656 35.199219 22.699219 35.292969 22.957031 C 35.402344 23.269531 35.613281 23.484375 35.882812 23.558594 C 36.210938 23.648438 36.492188 23.386719 36.625 22.863281 C 36.734375 22.457031 36.734375 22.464844 36.75 20.300781 C 36.769531 18.160156 36.769531 18.125 36.867188 17.875 C 37.003906 17.511719 37.351562 17.171875 37.707031 17.050781 C 37.875 16.992188 38.167969 16.984375 38.332031 17.03125 C 38.472656 17.070312 38.648438 17.179688 38.753906 17.300781 C 39.039062 17.617188 39.175781 18.074219 39.175781 18.722656 C 39.175781 19.320312 39.210938 21.292969 39.230469 21.683594 C 39.273438 22.554688 39.382812 23.089844 39.5625 23.292969 C 39.75 23.503906 40.070312 23.550781 40.398438 23.417969 C 40.6875 23.300781 40.796875 22.953125 40.828125 22.03125 C 40.835938 21.730469 40.855469 21.253906 40.867188 20.96875 C 40.890625 20.390625 40.882812 19.730469 40.839844 18.582031 C 40.792969 17.488281 40.738281 17.035156 40.597656 16.546875 C 40.277344 15.484375 39.484375 14.769531 38.480469 14.648438 C 37.941406 14.582031 37.136719 15.0625 36.867188 15.605469 C 36.832031 15.675781 36.800781 15.726562 36.792969 15.722656 C 36.785156 15.71875 36.769531 15.574219 36.757812 15.398438 C 36.730469 14.972656 36.679688 14.777344 36.554688 14.59375 C 36.4375 14.425781 36.324219 14.34375 36.113281 14.273438 C 35.929688 14.21875 35.820312 14.214844 35.691406 14.257812 Z M 35.691406 14.257812 "/>
<path style=" stroke:none;fill-rule:nonzero;fill:rgb(0%,0%,0%);fill-opacity:1;" d="M 28.488281 14.339844 C 28.351562 14.378906 28.164062 14.5 28.070312 14.613281 C 27.929688 14.773438 27.828125 15.167969 27.789062 15.695312 C 27.753906 16.140625 27.753906 18.871094 27.785156 19.484375 C 27.84375 20.640625 27.929688 21.21875 28.125 21.824219 C 28.347656 22.492188 28.617188 22.902344 29.039062 23.207031 C 29.367188 23.441406 29.738281 23.59375 30.164062 23.679688 C 30.480469 23.734375 31.105469 23.714844 31.421875 23.640625 C 32.164062 23.457031 32.746094 23.027344 33.027344 22.453125 C 33.449219 21.59375 33.566406 20.667969 33.589844 17.960938 C 33.609375 15.71875 33.515625 14.898438 33.207031 14.589844 C 33.066406 14.453125 32.875 14.378906 32.652344 14.378906 C 32.300781 14.378906 31.992188 14.597656 31.882812 14.929688 C 31.765625 15.277344 31.75 15.761719 31.753906 17.976562 C 31.757812 19.855469 31.753906 19.964844 31.679688 20.394531 C 31.621094 20.730469 31.5 20.960938 31.324219 21.078125 C 31.175781 21.179688 30.871094 21.25 30.613281 21.238281 C 30.402344 21.230469 30.382812 21.226562 30.246094 21.132812 C 29.964844 20.949219 29.757812 20.5625 29.644531 20.011719 C 29.542969 19.492188 29.527344 19.175781 29.480469 16.730469 C 29.472656 16.195312 29.453125 15.660156 29.441406 15.546875 C 29.371094 14.839844 29.175781 14.464844 28.816406 14.339844 C 28.683594 14.292969 28.644531 14.292969 28.488281 14.339844 Z M 28.488281 14.339844 "/>
</g>
</svg>
