<svg version="1.0" xmlns="http://www.w3.org/2000/svg"
 width="806.000000pt" height="482.000000pt" viewBox="0 0 806.000000 482.000000"
 preserveAspectRatio="xMidYMid meet">
 	<g transform="translate(0.000000,482.000000) scale(0.100000,-0.100000)"
fill="#000000" stroke="none">
		<path d="M3450 3622 c-27 -15 -39 -31 -52 -68 -15 -44 -17 -115 -18 -738 0
-489 3 -700 11 -727 18 -59 59 -92 121 -96 41 -3 60 1 86 17 59 37 65 66 72
346 6 231 9 255 29 296 26 56 62 73 146 73 78 -1 102 -15 132 -81 27 -59 42
-202 43 -400 0 -175 42 -254 134 -254 48 0 80 19 102 61 34 66 41 437 12 624
-21 139 -95 237 -224 297 -82 38 -211 49 -311 26 l-61 -15 -4 266 c-5 307 -10
332 -74 368 -48 28 -98 29 -144 5z"/>
		<path d="M1865 3621 c-110 -4 -211 -11 -225 -18 -47 -20 -63 -48 -62 -108 0
-70 19 -100 80 -128 42 -20 68 -22 235 -25 l187 -4 0 -386 c0 -400 -6 -483
-41 -562 -26 -58 -54 -88 -104 -111 -86 -40 -177 -19 -272 60 -37 32 -78 63
-90 69 -33 18 -72 14 -110 -9 -98 -61 -80 -206 40 -316 145 -132 451 -160 664
-61 106 49 194 177 230 333 16 72 18 125 16 531 l-3 451 111 6 c124 7 172 24
194 68 22 42 19 101 -8 140 -40 60 -79 67 -378 72 -145 2 -354 2 -464 -2z"/>
		<path d="M2977 3581 c-55 -36 -72 -81 -56 -151 12 -55 59 -106 105 -115 72
-13 165 42 179 105 25 112 -134 224 -228 161z"/>
		<path d="M2974 3111 c-36 -16 -44 -26 -60 -73 -18 -49 -19 -84 -16 -452 1
-226 7 -418 13 -444 23 -104 61 -142 144 -142 41 0 52 5 80 35 53 55 57 108
53 585 -3 460 -3 460 -68 492 -45 23 -94 22 -146 -1z"/>
		<path d="M5712 3090 c-21 -13 -41 -38 -54 -67 -19 -44 -20 -59 -15 -457 3
-330 7 -422 20 -466 44 -155 212 -164 245 -13 6 26 13 161 16 299 5 286 7 296
82 343 53 34 118 46 172 31 49 -13 109 -76 116 -122 3 -18 10 -143 15 -278 13
-333 27 -369 142 -370 118 0 132 41 132 390 0 360 -24 472 -123 564 -146 136
-348 151 -492 36 -20 -17 -39 -30 -42 -30 -3 0 -6 15 -6 34 0 95 -123 158
-208 106z"/>
		<path d="M4539 3077 c-19 -12 -40 -36 -48 -52 -37 -77 -33 -607 5 -750 31
-116 80 -190 159 -241 144 -92 388 -99 551 -16 69 35 102 68 138 137 53 104
60 162 60 500 1 348 -3 372 -63 412 -68 46 -185 21 -213 -45 -8 -17 -14 -135
-18 -337 -5 -276 -8 -314 -25 -349 -22 -46 -64 -67 -140 -67 -65 -1 -103 19
-137 72 -34 53 -46 141 -57 414 -7 206 -10 235 -30 272 -36 73 -116 94 -182
50z"/>
	</g>
</svg>
