<?xml version="1.0" encoding="UTF-8"?>
<svg xmlns="http://www.w3.org/2000/svg" xmlns:xlink="http://www.w3.org/1999/xlink" width="46pt" height="28pt" viewBox="0 0 46 28" version="1.1">
<g id="surface1">
<path style=" stroke:none;fill-rule:nonzero;fill:rgb(0%,0%,0%);fill-opacity:1;" d="M 19.910156 6.898438 C 19.6875 6.9375 19.507812 7.089844 19.445312 7.300781 C 19.347656 7.617188 19.355469 7.359375 19.359375 11.746094 L 19.363281 15.796875 L 19.410156 15.917969 C 19.53125 16.238281 19.695312 16.378906 20 16.421875 C 20.273438 16.460938 20.496094 16.390625 20.652344 16.222656 C 20.765625 16.105469 20.824219 15.992188 20.878906 15.804688 C 20.914062 15.679688 20.917969 15.628906 20.929688 14.574219 C 20.941406 13.46875 20.957031 13.1875 21.027344 12.796875 C 21.085938 12.460938 21.246094 12.273438 21.558594 12.175781 C 21.644531 12.148438 21.722656 12.144531 21.964844 12.144531 C 22.230469 12.144531 22.277344 12.152344 22.367188 12.1875 C 22.515625 12.246094 22.625 12.355469 22.71875 12.542969 C 22.917969 12.925781 22.957031 13.238281 22.972656 14.539062 C 22.984375 15.351562 22.996094 15.535156 23.054688 15.761719 C 23.140625 16.105469 23.269531 16.300781 23.46875 16.378906 C 23.613281 16.4375 23.890625 16.4375 24.03125 16.378906 C 24.183594 16.3125 24.3125 16.113281 24.367188 15.851562 C 24.464844 15.40625 24.488281 14.433594 24.433594 13.125 C 24.394531 12.277344 24.28125 11.859375 23.957031 11.421875 C 23.65625 11.007812 23.109375 10.683594 22.539062 10.574219 C 22.308594 10.53125 21.792969 10.53125 21.523438 10.574219 C 21.347656 10.605469 21.058594 10.671875 20.980469 10.703125 C 20.949219 10.714844 20.949219 10.671875 20.949219 9.953125 C 20.949219 9.089844 20.921875 7.980469 20.894531 7.71875 C 20.871094 7.519531 20.824219 7.34375 20.757812 7.214844 C 20.703125 7.109375 20.550781 6.988281 20.402344 6.929688 C 20.289062 6.886719 20.058594 6.867188 19.910156 6.898438 Z M 19.910156 6.898438 "/>
<path style=" stroke:none;fill-rule:nonzero;fill:rgb(0%,0%,0%);fill-opacity:1;" d="M 10.933594 6.96875 C 9.878906 6.980469 9.753906 6.988281 9.527344 7.042969 C 9.320312 7.09375 9.140625 7.222656 9.070312 7.378906 C 9.015625 7.5 9.015625 7.839844 9.070312 8.019531 C 9.136719 8.234375 9.300781 8.375 9.585938 8.460938 C 9.871094 8.546875 9.941406 8.554688 10.917969 8.570312 C 11.425781 8.578125 11.859375 8.589844 11.878906 8.597656 C 11.914062 8.609375 11.914062 8.625 11.914062 10.851562 C 11.914062 12.882812 11.914062 13.117188 11.882812 13.3125 C 11.84375 13.589844 11.789062 13.859375 11.746094 14 C 11.691406 14.152344 11.566406 14.398438 11.488281 14.492188 C 11.339844 14.675781 11.117188 14.820312 10.890625 14.878906 C 10.691406 14.929688 10.320312 14.90625 10.042969 14.828125 C 9.882812 14.777344 9.753906 14.691406 9.460938 14.421875 C 9.042969 14.046875 8.890625 13.957031 8.679688 13.976562 C 8.472656 13.992188 8.195312 14.179688 8.101562 14.367188 C 7.976562 14.617188 7.988281 14.953125 8.128906 15.273438 C 8.246094 15.542969 8.503906 15.859375 8.761719 16.042969 C 9.078125 16.269531 9.574219 16.457031 10.074219 16.539062 C 10.355469 16.582031 10.929688 16.59375 11.21875 16.554688 C 11.644531 16.503906 12.125 16.371094 12.386719 16.238281 C 13.027344 15.910156 13.480469 15.242188 13.648438 14.371094 C 13.714844 14.035156 13.761719 13.632812 13.785156 13.242188 C 13.808594 12.808594 13.808594 11.632812 13.785156 11.117188 C 13.753906 10.503906 13.726562 9.167969 13.742188 8.847656 L 13.753906 8.558594 L 14.242188 8.546875 C 14.742188 8.535156 15.019531 8.507812 15.179688 8.453125 C 15.296875 8.414062 15.464844 8.253906 15.527344 8.128906 C 15.570312 8.046875 15.574219 8.019531 15.574219 7.824219 C 15.574219 7.554688 15.539062 7.449219 15.40625 7.300781 C 15.304688 7.183594 15.265625 7.160156 15.054688 7.089844 C 14.773438 6.992188 14.691406 6.984375 13.550781 6.96875 C 12.972656 6.957031 12.398438 6.953125 12.269531 6.953125 C 12.144531 6.953125 11.542969 6.960938 10.933594 6.96875 Z M 10.933594 6.96875 "/>
<path style=" stroke:none;fill-rule:nonzero;fill:rgb(0%,0%,0%);fill-opacity:1;" d="M 17.160156 7.136719 C 16.898438 7.234375 16.726562 7.445312 16.683594 7.71875 C 16.664062 7.847656 16.6875 8.0625 16.742188 8.207031 C 16.882812 8.597656 17.226562 8.792969 17.621094 8.707031 C 17.972656 8.632812 18.214844 8.402344 18.277344 8.085938 C 18.332031 7.800781 18.167969 7.480469 17.855469 7.265625 C 17.6875 7.15625 17.550781 7.113281 17.371094 7.113281 C 17.289062 7.113281 17.195312 7.125 17.160156 7.136719 Z M 17.160156 7.136719 "/>
<path style=" stroke:none;fill-rule:nonzero;fill:rgb(0%,0%,0%);fill-opacity:1;" d="M 17.21875 9.867188 C 16.808594 9.9375 16.648438 10.175781 16.578125 10.84375 C 16.554688 11.0625 16.554688 12.882812 16.578125 14.238281 C 16.597656 15.351562 16.609375 15.515625 16.703125 15.796875 C 16.816406 16.140625 16.96875 16.300781 17.25 16.359375 C 17.605469 16.433594 17.878906 16.300781 18.027344 15.980469 C 18.105469 15.8125 18.125 15.734375 18.167969 15.457031 C 18.191406 15.289062 18.195312 14.976562 18.199219 13.351562 C 18.210938 10.324219 18.1875 10.105469 17.839844 9.945312 C 17.660156 9.859375 17.433594 9.832031 17.21875 9.867188 Z M 17.21875 9.867188 "/>
<path style=" stroke:none;fill-rule:nonzero;fill:rgb(0%,0%,0%);fill-opacity:1;" d="M 32.835938 9.980469 C 32.617188 10.042969 32.433594 10.207031 32.351562 10.417969 C 32.253906 10.667969 32.253906 10.652344 32.253906 12.597656 C 32.253906 14.378906 32.261719 14.742188 32.316406 15.367188 C 32.347656 15.730469 32.382812 15.890625 32.46875 16.070312 C 32.570312 16.289062 32.765625 16.4375 33.011719 16.488281 C 33.3125 16.554688 33.570312 16.371094 33.695312 16.003906 C 33.792969 15.71875 33.792969 15.726562 33.808594 14.210938 C 33.828125 12.710938 33.828125 12.6875 33.917969 12.511719 C 34.042969 12.257812 34.363281 12.019531 34.691406 11.933594 C 34.84375 11.894531 35.117188 11.886719 35.265625 11.921875 C 35.394531 11.949219 35.554688 12.027344 35.652344 12.109375 C 35.914062 12.332031 36.039062 12.652344 36.039062 13.105469 C 36.039062 13.523438 36.074219 14.90625 36.09375 15.175781 C 36.132812 15.789062 36.234375 16.164062 36.398438 16.304688 C 36.570312 16.453125 36.867188 16.488281 37.167969 16.394531 C 37.433594 16.3125 37.53125 16.066406 37.5625 15.421875 C 37.570312 15.210938 37.585938 14.878906 37.597656 14.675781 C 37.621094 14.273438 37.613281 13.8125 37.570312 13.007812 C 37.53125 12.242188 37.480469 11.925781 37.347656 11.582031 C 37.054688 10.839844 36.324219 10.339844 35.402344 10.253906 C 34.90625 10.207031 34.164062 10.542969 33.917969 10.925781 C 33.886719 10.972656 33.855469 11.007812 33.847656 11.007812 C 33.84375 11.003906 33.828125 10.902344 33.816406 10.777344 C 33.789062 10.480469 33.746094 10.34375 33.628906 10.214844 C 33.523438 10.097656 33.417969 10.039062 33.222656 9.992188 C 33.054688 9.953125 32.953125 9.949219 32.835938 9.980469 Z M 32.835938 9.980469 "/>
<path style=" stroke:none;fill-rule:nonzero;fill:rgb(0%,0%,0%);fill-opacity:1;" d="M 26.210938 10.039062 C 26.082031 10.066406 25.910156 10.152344 25.824219 10.226562 C 25.695312 10.339844 25.601562 10.617188 25.566406 10.988281 C 25.535156 11.296875 25.535156 13.210938 25.5625 13.636719 C 25.617188 14.449219 25.695312 14.851562 25.875 15.277344 C 26.078125 15.746094 26.328125 16.03125 26.714844 16.246094 C 27.015625 16.410156 27.359375 16.515625 27.753906 16.574219 C 28.039062 16.613281 28.617188 16.601562 28.910156 16.546875 C 29.589844 16.417969 30.125 16.117188 30.386719 15.71875 C 30.773438 15.117188 30.882812 14.464844 30.902344 12.574219 C 30.921875 11.003906 30.835938 10.429688 30.550781 10.214844 C 30.421875 10.117188 30.246094 10.0625 30.039062 10.0625 C 29.714844 10.0625 29.433594 10.21875 29.332031 10.453125 C 29.226562 10.695312 29.207031 11.03125 29.214844 12.582031 C 29.21875 13.898438 29.214844 13.976562 29.144531 14.277344 C 29.089844 14.511719 28.980469 14.671875 28.820312 14.753906 C 28.679688 14.828125 28.402344 14.875 28.164062 14.867188 C 27.96875 14.863281 27.953125 14.859375 27.828125 14.792969 C 27.566406 14.664062 27.378906 14.390625 27.273438 14.007812 C 27.179688 13.644531 27.164062 13.425781 27.121094 11.710938 C 27.113281 11.335938 27.097656 10.960938 27.085938 10.882812 C 27.019531 10.386719 26.84375 10.125 26.511719 10.039062 C 26.386719 10.003906 26.351562 10.003906 26.210938 10.039062 Z M 26.210938 10.039062 "/>
</g>
</svg>
