<svg version="1.0" xmlns="http://www.w3.org/2000/svg"
 width="2600.000000pt" height="1555.000000pt" viewBox="0 0 2600.000000 1555.000000"
 preserveAspectRatio="xMidYMid meet">

<g transform="translate(0.000000,1555.000000) scale(0.100000,-0.100000)"
fill="#000000" stroke="none">
<path d="M11253 11719 c-126 -22 -226 -107 -262 -223 -55 -177 -52 -33 -49
-2471 l3 -2250 26 -67 c69 -177 162 -255 334 -279 153 -21 279 17 368 110 63
66 97 128 128 233 21 70 22 97 29 683 7 615 16 770 55 987 33 186 124 291 300
345 49 15 92 18 230 17 151 0 176 -3 227 -23 84 -33 145 -93 200 -197 112
-214 134 -388 143 -1109 6 -452 13 -553 45 -679 49 -192 122 -299 235 -344 81
-32 238 -32 317 1 86 36 159 148 191 292 56 249 68 788 37 1515 -21 471 -86
702 -268 947 -170 228 -481 410 -802 470 -131 24 -423 23 -575 -1 -99 -16
-262 -54 -307 -71 -17 -7 -18 17 -18 416 0 481 -15 1096 -31 1242 -12 111 -38
209 -77 280 -31 58 -117 126 -200 158 -65 25 -194 34 -279 18z"/>
<path d="M6180 11679 c-597 -6 -666 -10 -794 -40 -119 -28 -219 -100 -259
-187 -32 -68 -31 -257 0 -357 38 -119 129 -196 291 -244 161 -48 202 -52 752
-61 289 -5 534 -12 545 -15 20 -6 20 -15 20 -1253 0 -1128 -2 -1258 -18 -1367
-22 -153 -53 -303 -79 -380 -29 -85 -101 -222 -145 -275 -84 -102 -210 -182
-338 -215 -112 -28 -322 -15 -478 30 -90 27 -163 76 -330 225 -235 209 -321
257 -441 248 -117 -10 -273 -114 -326 -219 -71 -137 -65 -324 14 -503 66 -149
213 -324 358 -426 180 -127 459 -231 743 -276 157 -25 482 -30 645 -10 242 30
513 102 661 177 363 182 619 554 713 1037 37 186 64 411 77 627 14 241 14 893
0 1180 -17 341 -32 1082 -24 1261 l6 161 276 6 c283 7 440 22 531 52 65 22
162 110 197 179 24 46 26 62 26 171 0 149 -20 208 -95 290 -58 64 -80 77 -198
117 -160 54 -207 58 -850 68 -327 5 -653 9 -725 8 -71 -1 -411 -5 -755 -9z"/>
<path d="M9699 11585 c-147 -54 -244 -170 -269 -322 -12 -71 2 -191 32 -272
80 -217 274 -324 498 -277 199 42 336 169 370 344 32 160 -62 338 -238 456
-94 62 -172 86 -274 85 -46 0 -99 -6 -119 -14z"/>
<path d="M9733 10069 c-233 -39 -322 -172 -362 -541 -14 -123 -14 -1134 -1
-1887 11 -617 19 -708 71 -864 63 -191 151 -280 310 -313 200 -42 354 31 438
210 44 93 56 137 79 291 13 94 16 267 19 1170 6 1680 -7 1802 -203 1892 -102
47 -231 62 -351 42z"/>
<path d="M18559 10006 c-123 -35 -227 -126 -274 -243 -55 -139 -55 -130 -55
-1211 0 -989 5 -1190 36 -1537 18 -202 38 -291 86 -391 58 -121 167 -204 307
-233 170 -36 316 66 387 269 55 159 55 156 64 997 10 832 11 846 60 943 72
141 253 273 438 321 86 22 240 26 324 8 74 -16 165 -59 220 -105 148 -124 219
-302 219 -553 0 -232 19 -1000 29 -1151 23 -339 80 -548 173 -626 97 -82 264
-101 435 -49 150 45 206 181 222 540 5 116 15 301 21 413 13 224 9 481 -15
927 -23 426 -52 602 -126 791 -165 414 -578 692 -1101 739 -279 26 -698 -161
-839 -373 -17 -26 -34 -46 -38 -45 -4 2 -12 58 -18 126 -15 165 -41 241 -106
313 -61 66 -119 97 -230 124 -94 22 -152 24 -219 6z"/>
<path d="M14814 9975 c-72 -16 -169 -63 -218 -106 -73 -63 -126 -217 -146
-422 -17 -172 -18 -1234 -2 -1472 31 -450 75 -675 178 -910 114 -260 255 -420
474 -538 170 -91 363 -151 586 -183 163 -22 489 -15 654 15 385 71 687 238
834 461 220 334 281 695 293 1747 10 872 -38 1190 -199 1310 -73 54 -172 83
-289 83 -183 0 -343 -85 -400 -215 -60 -135 -70 -323 -67 -1184 3 -731 1 -774
-39 -941 -31 -130 -93 -219 -184 -265 -78 -40 -236 -67 -370 -63 -110 3 -119
5 -191 41 -147 72 -254 223 -312 437 -54 201 -62 324 -86 1275 -5 209 -14 416
-20 460 -37 275 -138 421 -325 469 -70 19 -90 19 -171 1z"/>
</g>
</svg>
